<svg xmlns="http://www.w3.org/2000/svg" viewBox="0 0 512 512"><path d="M511.306 205.805a15.61 15.61 0 00-14.054-14.054c-4.172-.398-102.848-9.104-160.309 48.358-12.46 12.46-21.804 26.858-28.802 41.809-11.523-47.184-32.019-86.331-60.158-114.469-34.681-34.681-86.083-57.755-148.647-66.726-46.552-6.676-82.801-3.341-84.321-3.194A15.61 15.61 0 00.961 111.583c-.146 1.52-3.481 37.768 3.194 84.321 8.971 62.564 32.044 113.967 66.726 148.647 34.681 34.681 86.083 57.755 148.647 66.726 23.041 3.304 43.553 4.155 58.583 4.155 13.62-.001 22.724-.698 25.134-.907 2.061.177 8.336.64 17.473.64 31.958 0 98.844-5.664 142.23-49.052 57.461-57.459 48.757-156.134 48.358-160.308z" fill="#bffb32"/><g fill="#8cdc52"><path d="M415.84 292.074c-6.095-6.095-15.979-6.095-22.076 0L308.1 377.739 175.326 244.963c-6.095-6.095-15.979-6.095-22.076 0s-6.096 15.979 0 22.076l142.933 142.933a15.562 15.562 0 0011.037 4.573c.293 0 .587-.025.88-.043.293.017.587.043.88.043 3.995 0 7.99-1.525 11.037-4.573l95.821-95.822c6.098-6.097 6.098-15.981.002-22.076z"/><path d="M497.252 191.751c-4.172-.398-102.848-9.104-160.309 48.358-12.46 12.46-21.804 26.858-28.802 41.809-.152-.622-.312-1.237-.467-1.857v134.767c3.129.172 7.567.337 13.044.337 31.958 0 98.844-5.664 142.23-49.052 57.461-57.461 48.756-156.136 48.358-160.309a15.61 15.61 0 00-14.054-14.053z"/></g><path d="M393.765 292.074l-85.664 85.665-.426-.426v37.209c.142-.008.284-.012.426-.021.293.017.587.043.88.043 3.995 0 7.99-1.525 11.037-4.573l95.821-95.822c6.096-6.095 6.096-15.979 0-22.076-6.095-6.095-15.979-6.095-22.074.001z" fill="#5dc378"/></svg>